# Made in Blockbench 5.0.4
mtllib model.mtl

o cuboid
v 0.125 1 0.125
v 0.125 1 -0.125
v 0.125 0 0.125
v 0.125 0 -0.125
v -0.125 1 0.125
v -0.125 1 -0.125
v -0.125 0 0.125
v -0.125 0 -0.125
vt 0.125 1
vt 0 1
vt 0 0.5
vt 0.125 0.5
vt 0.28125 0.5
vt 0.28125 1
vt 0.15625 1
vt 0.15625 0.5
vt 0 0.34375
vt 0.125 0.34375
vt 0.125 0.46875
vt 0 0.46875
vt 0.28125 0.34375
vt 0.28125 0.46875
vt 0.15625 0.46875
vt 0.15625 0.34375
vt 0.4375 0.5
vt 0.4375 1
vt 0.3125 1
vt 0.3125 0.5
vt 0.59375 1
vt 0.46875 1
vt 0.46875 0.5
vt 0.59375 0.5
vn 1 0 0
vn -1 0 0
vn 0 1 0
vn 0 -1 0
vn 0 0 1
vn 0 0 -1
usemtl m_015fc6c6-1d63-c542-98d8-2db99c3682eb
f 2/1/1 1/2/1 3/3/1 4/4/1
f 7/5/2 5/6/2 6/7/2 8/8/2
f 5/9/3 1/10/3 2/11/3 6/12/3
f 4/13/4 3/14/4 7/15/4 8/16/4
f 3/17/5 1/18/5 5/19/5 7/20/5
f 6/21/6 2/22/6 4/23/6 8/24/6
o confirm
v 0 1.0625 0
v 0.038832187500000004 1 0.09375
v 0.038832187500000004 1.0625 0.09375
v 0.09375 1 0.03883218750000006
v 0.09375 1.0625 0.03883218750000006
v 0.09375 1 -0.03883218750000006
v 0.09375 1.0625 -0.03883218750000006
v 0.038832187500000004 1 -0.09375
v 0.038832187500000004 1.0625 -0.09375
v -0.038832187500000004 1 -0.09375
v -0.038832187500000004 1.0625 -0.09375
v -0.09375 1 -0.03883218750000006
v -0.09375 1.0625 -0.03883218750000006
v -0.09375 1 0.03883218750000006
v -0.09375 1.0625 0.03883218750000006
v -0.038832187500000004 1 0.09375
v -0.038832187500000004 1.0625 0.09375
vt 0.5 0.375
vt 0.53125 0.375
vt 0.53125 0.40625
vt 0.5 0.40625
vt 0.378790625 0.375
vt 0.40625 0.40245937500000006
vt 0.359375 0.421875
vt 0.4375 0.4375
vt 0.46875 0.4375
vt 0.46875 0.46875
vt 0.4375 0.46875
vt 0.40625 0.40245937500000006
vt 0.40625 0.44129062499999994
vt 0.359375 0.421875
vt 0.5625 0.375
vt 0.59375 0.375
vt 0.59375 0.40625
vt 0.5625 0.40625
vt 0.40625 0.44129062499999994
vt 0.378790625 0.46875
vt 0.359375 0.421875
vt 0.5 0.4375
vt 0.53125 0.4375
vt 0.53125 0.46875
vt 0.5 0.46875
vt 0.378790625 0.46875
vt 0.339959375 0.46875
vt 0.359375 0.421875
vt 0.625 0.96875
vt 0.65625 0.96875
vt 0.65625 1
vt 0.625 1
vt 0.339959375 0.46875
vt 0.3125 0.44129062499999994
vt 0.359375 0.421875
vt 0.5625 0.4375
vt 0.59375 0.4375
vt 0.59375 0.46875
vt 0.5625 0.46875
vt 0.3125 0.44129062499999994
vt 0.3125 0.40245937500000006
vt 0.359375 0.421875
vt 0.625 0.90625
vt 0.65625 0.90625
vt 0.65625 0.9375
vt 0.625 0.9375
vt 0.3125 0.40245937500000006
vt 0.339959375 0.375
vt 0.359375 0.421875
vt 0.4375 0.375
vt 0.46875 0.375
vt 0.46875 0.40625
vt 0.4375 0.40625
vt 0.339959375 0.375
vt 0.378790625 0.375
vt 0.359375 0.421875
vn 0.7071067811865472 0 0.7071067811865479
vn 0 1 0
vn 1 0 0
vn 0 1 0
vn 0.7071067811865472 0 -0.7071067811865479
vn 0 1 0
vn 0 0 -1
vn 0 1 0
vn -0.7071067811865472 0 -0.7071067811865479
vn 0 1 0
vn -1 0 0
vn 0 1 0
vn -0.7071067811865472 0 0.7071067811865479
vn 0 1 0
vn 0 0 1
vn 0 1 0
usemtl m_015fc6c6-1d63-c542-98d8-2db99c3682eb
f 10/25/7 12/26/7 13/27/7 11/28/7
f 11/29/8 13/30/8 9/31/8
f 12/32/9 14/33/9 15/34/9 13/35/9
f 13/36/10 15/37/10 9/38/10
f 14/39/11 16/40/11 17/41/11 15/42/11
f 15/43/12 17/44/12 9/45/12
f 16/46/13 18/47/13 19/48/13 17/49/13
f 17/50/14 19/51/14 9/52/14
f 18/53/15 20/54/15 21/55/15 19/56/15
f 19/57/16 21/58/16 9/59/16
f 20/60/17 22/61/17 23/62/17 21/63/17
f 21/64/18 23/65/18 9/66/18
f 22/67/19 24/68/19 25/69/19 23/70/19
f 23/71/20 25/72/20 9/73/20
f 24/74/21 10/75/21 11/76/21 25/77/21
f 25/78/22 11/79/22 9/80/22