# Made in Blockbench 5.0.4
mtllib model.mtl

o circle
v 0.029771875 0.59548625 0.025
v 0.08133875 0.56571375 0.025
v 0.11111125 0.514146875 0.025
v 0.11111125 0.454603125 0.025
v 0.08133875 0.40303625 0.025
v 0.029771875 0.37326375 0.025
v -0.029771875 0.37326375 0.025
v -0.08133875 0.40303625 0.025
v -0.11111125 0.454603125 0.025
v -0.11111125 0.514146875 0.025
v -0.08133875 0.56571375 0.025
v -0.029771875 0.59548625 0.025
v 0.03349375 0.609375 0.008333125
v 0.09150625 0.57588125 0.008333125
v 0.125 0.51786875 0.008333125
v 0.125 0.45088125 0.008333125
v 0.09150625 0.39286875 0.008333125
v 0.03349375 0.359375 0.008333125
v -0.03349375 0.359375 0.008333125
v -0.09150625 0.39286875 0.008333125
v -0.125 0.45088125 0.008333125
v -0.125 0.51786875 0.008333125
v -0.09150625 0.57588125 0.008333125
v -0.03349375 0.609375 0.008333125
v 0.03349375 0.609375 -0.008333125
v 0.09150625 0.57588125 -0.008333125
v 0.125 0.51786875 -0.008333125
v 0.125 0.45088125 -0.008333125
v 0.09150625 0.39286875 -0.008333125
v 0.03349375 0.359375 -0.008333125
v -0.03349375 0.359375 -0.008333125
v -0.09150625 0.39286875 -0.008333125
v -0.125 0.45088125 -0.008333125
v -0.125 0.51786875 -0.008333125
v -0.09150625 0.57588125 -0.008333125
v -0.03349375 0.609375 -0.008333125
v 0.029771875 0.59548625 -0.025
v 0.08133875 0.56571375 -0.025
v 0.11111125 0.514146875 -0.025
v 0.11111125 0.454603125 -0.025
v 0.08133875 0.40303625 -0.025
v 0.029771875 0.37326375 -0.025
v -0.029771875 0.37326375 -0.025
v -0.08133875 0.40303625 -0.025
v -0.11111125 0.454603125 -0.025
v -0.11111125 0.514146875 -0.025
v -0.08133875 0.56571375 -0.025
v -0.029771875 0.59548625 -0.025
v 0 0.484375 -0.025
v 0 0.484375 0.025
vt 0.375 0.6246738281547505
vt 0.3638314270387888 0.65625
vt 0.35422351833909427 0.6508786308967514
vt 0.36415079156132585 0.6228109274836326
vt 0.375 0.5911800781547505
vt 0.375 0.6246738281547505
vt 0.364153125 0.6228113281547505
vt 0.364153125 0.5930394531547505
vt 0.36384026450361123 0.5596007818668143
vt 0.375 0.5911800781547505
vt 0.3641502706277404 0.5930399424522136
vt 0.35423085292841233 0.5649694618538719
vt 0.3604984382527401 0.6875
vt 0.3920763590891256 0.6986759439105428
vt 0.38670309352439114 0.7082813617737639
vt 0.3586358334408037 0.6983474854064284
vt 0.3270046882527401 0.6875
vt 0.3604984382527401 0.6875
vt 0.3586359382527401 0.6983468749999999
vt 0.3288640632527401 0.6983468749999999
vt 0.2954236409108744 0.6986671059559524
vt 0.3270046882527401 0.6875
vt 0.32886425717324774 0.6983480062572809
vt 0.3007942180564385 0.7082740272255263
vt 0 0.5599300781547505
vt 0.01115973549638877 0.5283507818668143
vt 0.020769147071587692 0.5337194618538719
vt 0.01084972937225957 0.5617899424522136
vt 0 0.5934238281547505
vt 0 0.5599300781547505
vt 0.010846874999999999 0.5617894531547505
vt 0.010846874999999999 0.5915613281547505
vt 0.011168572961211189 0.625
vt 0 0.5934238281547505
vt 0.010849208438674172 0.5915609274836326
vt 0.020776481660905705 0.6196286308967514
vt 0.3270046882527401 0.78125
vt 0.2954236409108744 0.7700828940440476
vt 0.3007942180564385 0.7604759727744737
vt 0.32886425717324774 0.770401993742719
vt 0.3604984382527401 0.78125
vt 0.3270046882527401 0.78125
vt 0.3288640632527401 0.770403125
vt 0.3586359382527401 0.770403125
vt 0.3920763590891256 0.7700740560894572
vt 0.3604984382527401 0.78125
vt 0.35863583344080363 0.7704025145935717
vt 0.38670309352439114 0.7604686382262361
vt 0.082290625 0.59150625
vt 0.082290625 0.625
vt 0.073959375 0.625
vt 0.073959375 0.59150625
vt 0.082290625 0.5580125
vt 0.082290625 0.59150625
vt 0.073959375 0.59150625
vt 0.073959375 0.5580125
vt 0.082290625 0.5245187499999999
vt 0.082290625 0.5580125
vt 0.073959375 0.5580125
vt 0.073959375 0.5245187499999999
vt 0.485496875 0.90625
vt 0.518990625 0.90625
vt 0.518990625 0.91458125
vt 0.485496875 0.91458125
vt 0.452003125 0.90625
vt 0.485496875 0.90625
vt 0.485496875 0.91458125
vt 0.452003125 0.91458125
vt 0.418509375 0.90625
vt 0.452003125 0.90625
vt 0.452003125 0.91458125
vt 0.418509375 0.91458125
vt 0.417709375 0.5892625
vt 0.417709375 0.5557687499999999
vt 0.426040625 0.5557687499999999
vt 0.426040625 0.5892625
vt 0.417709375 0.62275625
vt 0.417709375 0.5892625
vt 0.426040625 0.5892625
vt 0.426040625 0.62275625
vt 0.417709375 0.65625
vt 0.417709375 0.62275625
vt 0.426040625 0.62275625
vt 0.426040625 0.65625
vt 0.452003125 1
vt 0.418509375 1
vt 0.418509375 0.99166875
vt 0.452003125 0.99166875
vt 0.485496875 1
vt 0.452003125 1
vt 0.452003125 0.99166875
vt 0.485496875 0.99166875
vt 0.518990625 1
vt 0.485496875 1
vt 0.485496875 0.99166875
vt 0.518990625 0.99166875
vt 0.3545997293722596 0.9665609274836328
vt 0.3645270025944911 0.9946286308967514
vt 0.3549190938947966 1
vt 0.3437505209335854 0.9684238281547505
vt 0.3545997293722596 0.9367890524836328
vt 0.3545997293722596 0.9665609274836328
vt 0.34375285437225955 0.9684234274836327
vt 0.34375285437225955 0.9349296774836328
vt 0.36451914707158767 0.9087185718852909
vt 0.3545997293722596 0.9367890524836328
vt 0.34375 0.9349291881861697
vt 0.35490973549638877 0.9033498918982333
vt 0.047615025618753214 0.6670974854064284
vt 0.01954776553516574 0.6770313617737639
vt 0.014175698732924881 0.6674230579802796
vt 0.04575242080681679 0.65625
vt 0.0773837756187532 0.6670974854064284
vt 0.047615025618753214 0.6670974854064284
vt 0.04575252561875321 0.6562506104064283
vt 0.07924627561875322 0.6562506104064283
vt 0.10545103570234068 0.6770313617737639
vt 0.0773837756187532 0.6670974854064284
vt 0.07924638043068963 0.65625
vt 0.11082430126707513 0.6674259439105427
vt 0.3016502706277404 0.5930390524836326
vt 0.29173085292841233 0.5649685718852909
vt 0.30134026450361123 0.5595998918982333
vt 0.3125 0.5911791881861697
vt 0.3016502706277404 0.6228109274836326
vt 0.3016502706277404 0.5930390524836326
vt 0.31249714562774045 0.5911796774836326
vt 0.31249714562774045 0.6246734274836327
vt 0.2917229974055089 0.6508786308967514
vt 0.3016502706277404 0.6228109274836326
vt 0.3124994790664146 0.6246738281547505
vt 0.3013309061052034 0.65625
vt 0.421138099785057 0.832901993742719
vt 0.4492081389018663 0.8229759727744737
vt 0.4545775164773163 0.8325857796387076
vt 0.4229976687055647 0.84375
vt 0.391363099785057 0.832901993742719
vt 0.421138099785057 0.832901993742719
vt 0.422997474785057 0.843748868742719
vt 0.389503724785057 0.843748868742719
vt 0.36329306066824774 0.8229759727744737
vt 0.391363099785057 0.832901993742719
vt 0.38950353086454936 0.84375
vt 0.3579224835226837 0.8325828940440477
vt 0.021831250000000003 0.9851125
vt 0.0069437499999999985 0.959328125
vt 0.0625 0.94444375
vt 0.0069437499999999985 0.959328125
vt 0.0069437499999999985 0.92955625
vt 0.0625 0.94444375
vt 0.0069437499999999985 0.92955625
vt 0.021831250000000003 0.903775
vt 0.0625 0.94444375
vt 0.021831250000000003 0.903775
vt 0.0476125 0.8888875
vt 0.0625 0.94444375
vt 0.0476125 0.8888875
vt 0.077384375 0.8888875
vt 0.0625 0.94444375
vt 0.077384375 0.8888875
vt 0.10316875 0.903775
vt 0.0625 0.94444375
vt 0.10316874999999998 0.903775
vt 0.11805625 0.92955625
vt 0.06249999999999999 0.94444375
vt 0.11805625 0.92955625
vt 0.11805625 0.959328125
vt 0.0625 0.94444375
vt 0.11805625 0.959328125
vt 0.10316875 0.9851125
vt 0.0625 0.94444375
vt 0.10316875 0.9851125
vt 0.077384375 1
vt 0.0625 0.94444375
vt 0.077384375 1
vt 0.0476125 1
vt 0.0625 0.94444375
vt 0.0476125 1
vt 0.021831250000000003 0.9851125
vt 0.0625 0.94444375
vt 0.11805625 0.803078125
vt 0.10316875 0.8288625000000001
vt 0.0625 0.78819375
vt 0.11805625 0.77330625
vt 0.11805625 0.803078125
vt 0.0625 0.78819375
vt 0.10316875 0.747525
vt 0.11805625 0.77330625
vt 0.0625 0.78819375
vt 0.077384375 0.7326375
vt 0.10316875 0.747525
vt 0.0625 0.78819375
vt 0.0476125 0.7326375
vt 0.077384375 0.7326375
vt 0.0625 0.78819375
vt 0.021831250000000003 0.747525
vt 0.0476125 0.7326375
vt 0.0625 0.78819375
vt 0.0069437499999999985 0.77330625
vt 0.021831250000000003 0.747525
vt 0.0625 0.78819375
vt 0.0069437499999999985 0.803078125
vt 0.0069437500000000055 0.77330625
vt 0.0625 0.78819375
vt 0.021831250000000003 0.8288625000000001
vt 0.0069437499999999985 0.803078125
vt 0.0625 0.78819375
vt 0.0476125 0.84375
vt 0.021831250000000003 0.8288625000000001
vt 0.0625 0.78819375
vt 0.077384375 0.84375
vt 0.0476125 0.84375
vt 0.0625 0.78819375
vt 0.10316875 0.8288625000000001
vt 0.077384375 0.84375
vt 0.0625 0.78819375
vn 0.6652978427262546 0.3841123830176685 0.6401847059062563
vn 0.7682283635348175 0 0.6401758988439166
vn 0.6653005203682528 -0.3841139289650363 0.6401809956354336
vn 0.3841123830176685 -0.6652978427262546 0.6401847059062563
vn 0 -0.7682283635348175 0.6401758988439166
vn -0.3841139289650363 -0.6653005203682528 0.6401809956354336
vn -0.6652978427262546 -0.3841123830176685 0.6401847059062563
vn -0.7682283635348175 0 0.6401758988439166
vn -0.6653005203682528 0.3841139289650363 0.6401809956354336
vn -0.3841123830176685 0.6652978427262546 0.6401847059062563
vn 0 0.7682283635348175 0.6401758988439166
vn 0.3841139289650363 0.6653005203682528 0.6401809956354336
vn 0.8660239977804737 0.500002435262396 0
vn 1 0 0
vn 0.8660239977804737 -0.500002435262396 0
vn 0.500002435262396 -0.8660239977804737 0
vn 0 -1 0
vn -0.500002435262396 -0.8660239977804737 0
vn -0.8660239977804737 -0.500002435262396 0
vn -1 0 0
vn -0.8660239977804737 0.500002435262396 0
vn -0.500002435262396 0.8660239977804737 0
vn 0 1 0
vn 0.500002435262396 0.8660239977804737 0
vn 0.665296795509466 0.3841138103541386 -0.6401849377953692
vn 0.7682283635348176 0 -0.6401758988439165
vn 0.665299807836576 -0.384115549542501 -0.6401807637630778
vn 0.3841138103541386 -0.665296795509466 -0.6401849377953692
vn 0 -0.7682283635348176 -0.6401758988439165
vn -0.384115549542501 -0.665299807836576 -0.6401807637630778
vn -0.665296795509466 -0.3841138103541386 -0.6401849377953692
vn -0.7682283635348176 0 -0.6401758988439165
vn -0.665299807836576 0.384115549542501 -0.6401807637630778
vn -0.3841138103541386 0.665296795509466 -0.6401849377953692
vn 0 0.7682283635348176 -0.6401758988439165
vn 0.384115549542501 0.665299807836576 -0.6401807637630778
vn 0 0 -1
vn 0 0 -1
vn 0 0 -1
vn 0 0 -1
vn 0 0 -1
vn 0 0 -1
vn 0 0 -1
vn 0 0 -1
vn 0 0 -1
vn 0 0 -1
vn 0 0 -1
vn 0 0 -1
vn 0 0 1
vn 0 0 1
vn 0 0 1
vn 0 0 1
vn 0 0 1
vn 0 0 1
vn 0 0 1
vn 0 0 1
vn 0 0 1
vn 0 0 1
vn 0 0 1
vn 0 0 1
usemtl m_023bf51f-658d-65a2-3f2d-6cd3f270f983
f 15/1/1 14/2/1 2/3/1 3/4/1
f 16/5/2 15/6/2 3/7/2 4/8/2
f 17/9/3 16/10/3 4/11/3 5/12/3
f 18/13/4 17/14/4 5/15/4 6/16/4
f 19/17/5 18/18/5 6/19/5 7/20/5
f 20/21/6 19/22/6 7/23/6 8/24/6
f 21/25/7 20/26/7 8/27/7 9/28/7
f 22/29/8 21/30/8 9/31/8 10/32/8
f 23/33/9 22/34/9 10/35/9 11/36/9
f 24/37/10 23/38/10 11/39/10 12/40/10
f 13/41/11 24/42/11 12/43/11 1/44/11
f 14/45/12 13/46/12 1/47/12 2/48/12
f 27/49/13 26/50/13 14/51/13 15/52/13
f 28/53/14 27/54/14 15/55/14 16/56/14
f 29/57/15 28/58/15 16/59/15 17/60/15
f 30/61/16 29/62/16 17/63/16 18/64/16
f 31/65/17 30/66/17 18/67/17 19/68/17
f 32/69/18 31/70/18 19/71/18 20/72/18
f 33/73/19 32/74/19 20/75/19 21/76/19
f 34/77/20 33/78/20 21/79/20 22/80/20
f 35/81/21 34/82/21 22/83/21 23/84/21
f 36/85/22 35/86/22 23/87/22 24/88/22
f 25/89/23 36/90/23 24/91/23 13/92/23
f 26/93/24 25/94/24 13/95/24 14/96/24
f 39/97/25 38/98/25 26/99/25 27/100/25
f 40/101/26 39/102/26 27/103/26 28/104/26
f 41/105/27 40/106/27 28/107/27 29/108/27
f 42/109/28 41/110/28 29/111/28 30/112/28
f 43/113/29 42/114/29 30/115/29 31/116/29
f 44/117/30 43/118/30 31/119/30 32/120/30
f 45/121/31 44/122/31 32/123/31 33/124/31
f 46/125/32 45/126/32 33/127/32 34/128/32
f 47/129/33 46/130/33 34/131/33 35/132/33
f 48/133/34 47/134/34 35/135/34 36/136/34
f 37/137/35 48/138/35 36/139/35 25/140/35
f 38/141/36 37/142/36 25/143/36 26/144/36
f 38/145/37 39/146/37 49/147/37
f 39/148/38 40/149/38 49/150/38
f 40/151/39 41/152/39 49/153/39
f 41/154/40 42/155/40 49/156/40
f 42/157/41 43/158/41 49/159/41
f 43/160/42 44/161/42 49/162/42
f 44/163/43 45/164/43 49/165/43
f 45/166/44 46/167/44 49/168/44
f 46/169/45 47/170/45 49/171/45
f 47/172/46 48/173/46 49/174/46
f 48/175/47 37/176/47 49/177/47
f 37/178/48 38/179/48 49/180/48
f 3/181/49 2/182/49 50/183/49
f 4/184/50 3/185/50 50/186/50
f 5/187/51 4/188/51 50/189/51
f 6/190/52 5/191/52 50/192/52
f 7/193/53 6/194/53 50/195/53
f 8/196/54 7/197/54 50/198/54
f 9/199/55 8/200/55 50/201/55
f 10/202/56 9/203/56 50/204/56
f 11/205/57 10/206/57 50/207/57
f 12/208/58 11/209/58 50/210/58
f 1/211/59 12/212/59 50/213/59
f 2/214/60 1/215/60 50/216/60
o cylinder
v 0 0 -0.001979375
v 0.01111625 0 0.0125
v 0.01111625 0.375 0.0125
v 0.017986875 0 -0.00751
v 0.017986875 0.375 -0.00751
v 0 0 -0.019876875
v 0 0.375 -0.019876875
v -0.017986875 0 -0.00751
v -0.017986875 0.375 -0.00751
v -0.01111625 0 0.0125
v -0.01111625 0.375 0.0125
vt 0.14961875 0.53743125
vt 0.146184375 0.5474375
vt 0.140625 0.540196875
vt 0.21875 0.8125
vt 0.25 0.8125
vt 0.25 1
vt 0.21875 1
vt 0.140625 0.53125
vt 0.14961875 0.53743125
vt 0.140625 0.540196875
vt 0.21875 0.59375
vt 0.25 0.59375
vt 0.25 0.78125
vt 0.21875 0.78125
vt 0.13163125 0.53743125
vt 0.140625 0.53125
vt 0.140625 0.540196875
vt 0.28125 0.8125
vt 0.3125 0.8125
vt 0.3125 1
vt 0.28125 1
vt 0.135065625 0.5474375
vt 0.13163125 0.53743125
vt 0.140625 0.540196875
vt 0.15625 0.59375
vt 0.1875 0.59375
vt 0.1875 0.78125
vt 0.15625 0.78125
vt 0.146184375 0.5474375
vt 0.135065625 0.5474375
vt 0.140625 0.540196875
vt 0.15625 0.8125
vt 0.1875 0.8125
vt 0.1875 1
vt 0.15625 1
vn 0 -1 0
vn 0.9458000634913128 0 0.3247495033095953
vn 0 -1 0
vn 0.5665567717977642 0 -0.8240227086252517
vn 0 -1 0
vn -0.5665567717977642 0 -0.8240227086252517
vn 0 -1 0
vn -0.9458000634913128 0 0.3247495033095953
vn 0 -1 0
vn 0 0 1
usemtl m_023bf51f-658d-65a2-3f2d-6cd3f270f983
f 54/217/61 52/218/61 51/219/61
f 52/220/62 54/221/62 55/222/62 53/223/62
f 56/224/63 54/225/63 51/226/63
f 54/227/64 56/228/64 57/229/64 55/230/64
f 58/231/65 56/232/65 51/233/65
f 56/234/66 58/235/66 59/236/66 57/237/66
f 60/238/67 58/239/67 51/240/67
f 58/241/68 60/242/68 61/243/68 59/244/68
f 52/245/69 60/246/69 51/247/69
f 60/248/70 52/249/70 53/250/70 61/251/70